<?xml version="1.0" encoding="UTF-8" standalone="no"?>
<svg
   width="200"
   height="112"
   viewBox="0 0 52.916666 29.633335"
   version="1.1"
   id="svg8"
   inkscape:version="1.2 (dc2aedaf03, 2022-05-15)"
   sodipodi:docname="nothing-rendered-yet.svg"
   xmlns:inkscape="http://www.inkscape.org/namespaces/inkscape"
   xmlns:sodipodi="http://sodipodi.sourceforge.net/DTD/sodipodi-0.dtd"
   xmlns="http://www.w3.org/2000/svg"
   xmlns:svg="http://www.w3.org/2000/svg">
  <defs
     id="defs24016" />
  <sodipodi:namedview
     id="namedview24014"
     pagecolor="#505050"
     bordercolor="#ffffff"
     borderopacity="1"
     inkscape:showpageshadow="0"
     inkscape:pageopacity="0"
     inkscape:pagecheckerboard="1"
     inkscape:deskcolor="#505050"
     showgrid="false"
     inkscape:zoom="6.26"
     inkscape:cx="100.31949"
     inkscape:cy="56.549521"
     inkscape:window-width="1848"
     inkscape:window-height="1059"
     inkscape:window-x="1324"
     inkscape:window-y="535"
     inkscape:window-maximized="0"
     inkscape:current-layer="layer1" />
  <g
     inkscape:label="Layer 1"
     inkscape:groupmode="layer"
     id="layer1">
    <path
       id="rect303"
       style="color:#000000;fill:#ffffff;fill-opacity:0.16;stroke:none;stroke-width:0.251769;stroke-opacity:0.16;-inkscape-stroke:none"
       d="m 24.695948,12.298971 c -0.414086,0 -0.75531,0.341224 -0.755309,0.755309 l -1e-6,3.524774 c 1e-6,0.414085 0.341224,0.755308 0.755309,0.755309 l 3.524773,-1e-6 c 0.414086,0 0.75531,-0.341223 0.755309,-0.755308 l 1e-6,-1.007079 V 13.05428 c -1e-6,-0.414085 -0.341224,-0.755308 -0.755309,-0.755309 z m 0,0.503539 h 3.524772 c 0.143836,4e-6 0.251772,0.107929 0.251771,0.25177 v 1.909908 l -0.829069,-0.82907 c -0.09833,-0.09828 -0.257692,-0.09829 -0.356017,-4e-6 l -2.67997,2.67997 c -0.09708,-0.03437 -0.163258,-0.123885 -0.163257,-0.236033 v -3.524775 c 3e-6,-0.143834 0.107928,-0.251771 0.25177,-0.251769 z m 0.881191,0.503539 c -0.344637,3e-6 -0.629422,0.284786 -0.629422,0.629424 2e-6,0.344638 0.284786,0.629424 0.629423,0.629424 0.344639,0 0.629424,-0.284786 0.629424,-0.629424 0,-0.344639 -0.284786,-0.629423 -0.629425,-0.629424 z m 1.888274,1.363096 1.007077,1.007078 1e-6,0.902831 c -3e-6,0.143834 -0.107928,0.251771 -0.251771,0.251769 h -2.916987 z"
       sodipodi:nodetypes="sssssscssssssccccssssssssccsscc" />
  </g>
</svg>
